<?xml version="1.0" encoding="UTF-8" standalone="no"?>
<!DOCTYPE svg PUBLIC "-//W3C//DTD SVG 1.1//EN"
 "http://www.w3.org/Graphics/SVG/1.1/DTD/svg11.dtd">
<!-- Generated by graphviz version 5.0.0 (20220707.1540)
 -->
<!-- Title: dependencies Pages: 1 -->
<svg width="2512pt" height="247pt"
 viewBox="0.00 0.00 2512.00 246.80" xmlns="http://www.w3.org/2000/svg" xmlns:xlink="http://www.w3.org/1999/xlink">
<g id="graph0" class="graph" transform="scale(1 1) rotate(0) translate(4 242.8)">
<title>dependencies</title>
<polygon fill="white" stroke="transparent" points="-4,4 -4,-242.8 2508,-242.8 2508,4 -4,4"/>
<text text-anchor="middle" x="1252" y="-8.2" font-family="sans-serif" font-size="14.00">dependencies</text>
<g id="clust1" class="cluster">
<title>cluster_AppModule</title>
<polygon fill="none" stroke="black" stroke-dasharray="1,5" points="8,-32.8 8,-230.8 2496,-230.8 2496,-32.8 8,-32.8"/>
</g>
<g id="clust21" class="cluster">
<title>cluster_AppModule_bootstrap</title>
<polygon fill="none" stroke="black" points="1037,-170.8 1037,-222.8 1161,-222.8 1161,-170.8 1037,-170.8"/>
</g>
<g id="clust19" class="cluster">
<title>cluster_AppModule_imports</title>
<polygon fill="none" stroke="black" points="2344,-40.8 2344,-92.8 2488,-92.8 2488,-40.8 2344,-40.8"/>
</g>
<g id="clust2" class="cluster">
<title>cluster_AppModule_declarations</title>
<polygon fill="none" stroke="black" points="16,-40.8 16,-92.8 2336,-92.8 2336,-40.8 16,-40.8"/>
</g>
<!-- ActiveListComponent -->
<g id="node1" class="node">
<title>ActiveListComponent</title>
<polygon fill="#ffffb3" stroke="black" points="2328.43,-84.8 2187.57,-84.8 2187.57,-48.8 2328.43,-48.8 2328.43,-84.8"/>
<text text-anchor="middle" x="2258" y="-62.6" font-family="Times,serif" font-size="14.00">ActiveListComponent</text>
</g>
<!-- AppModule -->
<g id="node17" class="node">
<title>AppModule</title>
<polygon fill="#8dd3c7" stroke="black" points="1140.66,-149.8 1137.66,-153.8 1116.66,-153.8 1113.66,-149.8 1057.34,-149.8 1057.34,-113.8 1140.66,-113.8 1140.66,-149.8"/>
<text text-anchor="middle" x="1099" y="-127.6" font-family="Times,serif" font-size="14.00">AppModule</text>
</g>
<!-- ActiveListComponent&#45;&gt;AppModule -->
<g id="edge1" class="edge">
<title>ActiveListComponent&#45;&gt;AppModule</title>
<path fill="none" stroke="black" d="M2258,-84.81C2258,-107.29 2258,-142.8 2258,-142.8 2258,-142.8 1150.93,-142.8 1150.93,-142.8"/>
<polygon fill="black" stroke="black" points="1150.93,-139.3 1140.93,-142.8 1150.93,-146.3 1150.93,-139.3"/>
</g>
<!-- AdminUserComponent -->
<g id="node2" class="node">
<title>AdminUserComponent</title>
<polygon fill="#ffffb3" stroke="black" points="2169.16,-84.8 2022.84,-84.8 2022.84,-48.8 2169.16,-48.8 2169.16,-84.8"/>
<text text-anchor="middle" x="2096" y="-62.6" font-family="Times,serif" font-size="14.00">AdminUserComponent</text>
</g>
<!-- AdminUserComponent&#45;&gt;AppModule -->
<g id="edge2" class="edge">
<title>AdminUserComponent&#45;&gt;AppModule</title>
<path fill="none" stroke="black" d="M2096,-84.84C2096,-106.46 2096,-139.8 2096,-139.8 2096,-139.8 1150.89,-139.8 1150.89,-139.8"/>
<polygon fill="black" stroke="black" points="1150.89,-136.3 1140.89,-139.8 1150.89,-143.3 1150.89,-136.3"/>
</g>
<!-- AppComponent -->
<g id="node3" class="node">
<title>AppComponent</title>
<polygon fill="#ffffb3" stroke="black" points="2004.94,-84.8 1899.06,-84.8 1899.06,-48.8 2004.94,-48.8 2004.94,-84.8"/>
<text text-anchor="middle" x="1952" y="-62.6" font-family="Times,serif" font-size="14.00">AppComponent</text>
</g>
<!-- AppComponent&#45;&gt;AppModule -->
<g id="edge3" class="edge">
<title>AppComponent&#45;&gt;AppModule</title>
<path fill="none" stroke="black" d="M1952,-84.93C1952,-105.37 1952,-135.8 1952,-135.8 1952,-135.8 1150.72,-135.8 1150.72,-135.8"/>
<polygon fill="black" stroke="black" points="1150.72,-132.3 1140.72,-135.8 1150.72,-139.3 1150.72,-132.3"/>
</g>
<!-- ArchiveListComponent -->
<g id="node4" class="node">
<title>ArchiveListComponent</title>
<polygon fill="#ffffb3" stroke="black" points="1881.2,-84.8 1732.8,-84.8 1732.8,-48.8 1881.2,-48.8 1881.2,-84.8"/>
<text text-anchor="middle" x="1807" y="-62.6" font-family="Times,serif" font-size="14.00">ArchiveListComponent</text>
</g>
<!-- ArchiveListComponent&#45;&gt;AppModule -->
<g id="edge4" class="edge">
<title>ArchiveListComponent&#45;&gt;AppModule</title>
<path fill="none" stroke="black" d="M1807,-84.91C1807,-104.14 1807,-131.8 1807,-131.8 1807,-131.8 1150.91,-131.8 1150.91,-131.8"/>
<polygon fill="black" stroke="black" points="1150.91,-128.3 1140.91,-131.8 1150.91,-135.3 1150.91,-128.3"/>
</g>
<!-- ConnexionComponent -->
<g id="node5" class="node">
<title>ConnexionComponent</title>
<polygon fill="#ffffb3" stroke="black" points="1715.27,-84.8 1572.73,-84.8 1572.73,-48.8 1715.27,-48.8 1715.27,-84.8"/>
<text text-anchor="middle" x="1644" y="-62.6" font-family="Times,serif" font-size="14.00">ConnexionComponent</text>
</g>
<!-- ConnexionComponent&#45;&gt;AppModule -->
<g id="edge5" class="edge">
<title>ConnexionComponent&#45;&gt;AppModule</title>
<path fill="none" stroke="black" d="M1644,-85.07C1644,-103.36 1644,-128.8 1644,-128.8 1644,-128.8 1150.86,-128.8 1150.86,-128.8"/>
<polygon fill="black" stroke="black" points="1150.86,-125.3 1140.86,-128.8 1150.86,-132.3 1150.86,-125.3"/>
</g>
<!-- FilterActivePipe -->
<g id="node6" class="node">
<title>FilterActivePipe</title>
<polygon fill="#ffffb3" stroke="black" points="1554.04,-84.8 1445.96,-84.8 1445.96,-48.8 1554.04,-48.8 1554.04,-84.8"/>
<text text-anchor="middle" x="1500" y="-62.6" font-family="Times,serif" font-size="14.00">FilterActivePipe</text>
</g>
<!-- FilterActivePipe&#45;&gt;AppModule -->
<g id="edge6" class="edge">
<title>FilterActivePipe&#45;&gt;AppModule</title>
<path fill="none" stroke="black" d="M1500,-84.83C1500,-101.86 1500,-124.8 1500,-124.8 1500,-124.8 1150.78,-124.8 1150.78,-124.8"/>
<polygon fill="black" stroke="black" points="1150.78,-121.3 1140.78,-124.8 1150.78,-128.3 1150.78,-121.3"/>
</g>
<!-- FilterInactivePipe -->
<g id="node7" class="node">
<title>FilterInactivePipe</title>
<polygon fill="#ffffb3" stroke="black" points="1428.3,-84.8 1311.7,-84.8 1311.7,-48.8 1428.3,-48.8 1428.3,-84.8"/>
<text text-anchor="middle" x="1370" y="-62.6" font-family="Times,serif" font-size="14.00">FilterInactivePipe</text>
</g>
<!-- FilterInactivePipe&#45;&gt;AppModule -->
<g id="edge7" class="edge">
<title>FilterInactivePipe&#45;&gt;AppModule</title>
<path fill="none" stroke="black" d="M1370,-84.81C1370,-100.85 1370,-121.8 1370,-121.8 1370,-121.8 1150.75,-121.8 1150.75,-121.8"/>
<polygon fill="black" stroke="black" points="1150.75,-118.3 1140.75,-121.8 1150.75,-125.3 1150.75,-118.3"/>
</g>
<!-- HeaderComponent -->
<g id="node8" class="node">
<title>HeaderComponent</title>
<polygon fill="#ffffb3" stroke="black" points="1293.75,-84.8 1172.25,-84.8 1172.25,-48.8 1293.75,-48.8 1293.75,-84.8"/>
<text text-anchor="middle" x="1233" y="-62.6" font-family="Times,serif" font-size="14.00">HeaderComponent</text>
</g>
<!-- HeaderComponent&#45;&gt;AppModule -->
<g id="edge8" class="edge">
<title>HeaderComponent&#45;&gt;AppModule</title>
<path fill="none" stroke="black" d="M1233,-84.92C1233,-99.58 1233,-117.8 1233,-117.8 1233,-117.8 1150.66,-117.8 1150.66,-117.8"/>
<polygon fill="black" stroke="black" points="1150.66,-114.3 1140.66,-117.8 1150.66,-121.3 1150.66,-114.3"/>
</g>
<!-- InputComponent -->
<g id="node9" class="node">
<title>InputComponent</title>
<polygon fill="#ffffb3" stroke="black" points="1154.38,-84.8 1043.62,-84.8 1043.62,-48.8 1154.38,-48.8 1154.38,-84.8"/>
<text text-anchor="middle" x="1099" y="-62.6" font-family="Times,serif" font-size="14.00">InputComponent</text>
</g>
<!-- InputComponent&#45;&gt;AppModule -->
<g id="edge9" class="edge">
<title>InputComponent&#45;&gt;AppModule</title>
<path fill="none" stroke="black" d="M1085.06,-84.91C1085.06,-84.91 1085.06,-103.79 1085.06,-103.79"/>
<polygon fill="black" stroke="black" points="1081.56,-103.79 1085.06,-113.79 1088.56,-103.79 1081.56,-103.79"/>
</g>
<!-- InputComponent&#45;&gt;AppModule -->
<g id="edge10" class="edge">
<title>InputComponent&#45;&gt;AppModule</title>
<path fill="none" stroke="black" d="M1112.94,-84.91C1112.94,-84.91 1112.94,-103.79 1112.94,-103.79"/>
<polygon fill="black" stroke="black" points="1109.44,-103.79 1112.94,-113.79 1116.44,-103.79 1109.44,-103.79"/>
</g>
<!-- InscriptionComponent -->
<g id="node10" class="node">
<title>InscriptionComponent</title>
<polygon fill="#ffffb3" stroke="black" points="1025.99,-84.8 884.01,-84.8 884.01,-48.8 1025.99,-48.8 1025.99,-84.8"/>
<text text-anchor="middle" x="955" y="-62.6" font-family="Times,serif" font-size="14.00">InscriptionComponent</text>
</g>
<!-- InscriptionComponent&#45;&gt;AppModule -->
<g id="edge11" class="edge">
<title>InscriptionComponent&#45;&gt;AppModule</title>
<path fill="none" stroke="black" d="M955,-84.92C955,-99.58 955,-117.8 955,-117.8 955,-117.8 1046.96,-117.8 1046.96,-117.8"/>
<polygon fill="black" stroke="black" points="1046.96,-121.3 1056.96,-117.8 1046.96,-114.3 1046.96,-121.3"/>
</g>
<!-- ModificationComponent -->
<g id="node11" class="node">
<title>ModificationComponent</title>
<polygon fill="#ffffb3" stroke="black" points="866.43,-84.8 711.57,-84.8 711.57,-48.8 866.43,-48.8 866.43,-84.8"/>
<text text-anchor="middle" x="789" y="-62.6" font-family="Times,serif" font-size="14.00">ModificationComponent</text>
</g>
<!-- ModificationComponent&#45;&gt;AppModule -->
<g id="edge12" class="edge">
<title>ModificationComponent&#45;&gt;AppModule</title>
<path fill="none" stroke="black" d="M789,-84.81C789,-100.85 789,-121.8 789,-121.8 789,-121.8 1047.19,-121.8 1047.19,-121.8"/>
<polygon fill="black" stroke="black" points="1047.19,-125.3 1057.19,-121.8 1047.19,-118.3 1047.19,-125.3"/>
</g>
<!-- PaginationComponent -->
<g id="node12" class="node">
<title>PaginationComponent</title>
<polygon fill="#ffffb3" stroke="black" points="693.71,-84.8 552.29,-84.8 552.29,-48.8 693.71,-48.8 693.71,-84.8"/>
<text text-anchor="middle" x="623" y="-62.6" font-family="Times,serif" font-size="14.00">PaginationComponent</text>
</g>
<!-- PaginationComponent&#45;&gt;AppModule -->
<g id="edge13" class="edge">
<title>PaginationComponent&#45;&gt;AppModule</title>
<path fill="none" stroke="black" d="M623,-84.82C623,-102.17 623,-125.8 623,-125.8 623,-125.8 1047.18,-125.8 1047.18,-125.8"/>
<polygon fill="black" stroke="black" points="1047.18,-129.3 1057.18,-125.8 1047.18,-122.3 1047.18,-129.3"/>
</g>
<!-- SearchInactifPipe -->
<g id="node13" class="node">
<title>SearchInactifPipe</title>
<polygon fill="#ffffb3" stroke="black" points="534.51,-84.8 419.49,-84.8 419.49,-48.8 534.51,-48.8 534.51,-84.8"/>
<text text-anchor="middle" x="477" y="-62.6" font-family="Times,serif" font-size="14.00">SearchInactifPipe</text>
</g>
<!-- SearchInactifPipe&#45;&gt;AppModule -->
<g id="edge14" class="edge">
<title>SearchInactifPipe&#45;&gt;AppModule</title>
<path fill="none" stroke="black" d="M477,-85.02C477,-103.63 477,-129.8 477,-129.8 477,-129.8 1047.22,-129.8 1047.22,-129.8"/>
<polygon fill="black" stroke="black" points="1047.22,-133.3 1057.22,-129.8 1047.22,-126.3 1047.22,-133.3"/>
</g>
<!-- SearchPipe -->
<g id="node14" class="node">
<title>SearchPipe</title>
<polygon fill="#ffffb3" stroke="black" points="401.48,-84.8 322.52,-84.8 322.52,-48.8 401.48,-48.8 401.48,-84.8"/>
<text text-anchor="middle" x="362" y="-62.6" font-family="Times,serif" font-size="14.00">SearchPipe</text>
</g>
<!-- SearchPipe&#45;&gt;AppModule -->
<g id="edge15" class="edge">
<title>SearchPipe&#45;&gt;AppModule</title>
<path fill="none" stroke="black" d="M362,-85.11C362,-104.95 362,-133.8 362,-133.8 362,-133.8 1047.26,-133.8 1047.26,-133.8"/>
<polygon fill="black" stroke="black" points="1047.26,-137.3 1057.26,-133.8 1047.26,-130.3 1047.26,-137.3"/>
</g>
<!-- SelectComponent -->
<g id="node15" class="node">
<title>SelectComponent</title>
<polygon fill="#ffffb3" stroke="black" points="304.54,-84.8 189.46,-84.8 189.46,-48.8 304.54,-48.8 304.54,-84.8"/>
<text text-anchor="middle" x="247" y="-62.6" font-family="Times,serif" font-size="14.00">SelectComponent</text>
</g>
<!-- SelectComponent&#45;&gt;AppModule -->
<g id="edge16" class="edge">
<title>SelectComponent&#45;&gt;AppModule</title>
<path fill="none" stroke="black" d="M266.26,-85.08C266.26,-106.12 266.26,-137.8 266.26,-137.8 266.26,-137.8 1047.13,-137.8 1047.13,-137.8"/>
<polygon fill="black" stroke="black" points="1047.13,-141.3 1057.13,-137.8 1047.13,-134.3 1047.13,-141.3"/>
</g>
<!-- SelectComponent&#45;&gt;AppModule -->
<g id="edge17" class="edge">
<title>SelectComponent&#45;&gt;AppModule</title>
<path fill="none" stroke="black" d="M227.74,-84.96C227.74,-107.15 227.74,-141.8 227.74,-141.8 227.74,-141.8 1047.27,-141.8 1047.27,-141.8"/>
<polygon fill="black" stroke="black" points="1047.27,-145.3 1057.27,-141.8 1047.27,-138.3 1047.27,-145.3"/>
</g>
<!-- SimpleUserComponent -->
<g id="node16" class="node">
<title>SimpleUserComponent</title>
<polygon fill="#ffffb3" stroke="black" points="171.94,-84.8 24.06,-84.8 24.06,-48.8 171.94,-48.8 171.94,-84.8"/>
<text text-anchor="middle" x="98" y="-62.6" font-family="Times,serif" font-size="14.00">SimpleUserComponent</text>
</g>
<!-- SimpleUserComponent&#45;&gt;AppModule -->
<g id="edge18" class="edge">
<title>SimpleUserComponent&#45;&gt;AppModule</title>
<path fill="none" stroke="black" d="M98,-85.12C98,-108.46 98,-145.8 98,-145.8 98,-145.8 1047.26,-145.8 1047.26,-145.8"/>
<polygon fill="black" stroke="black" points="1047.26,-149.3 1057.26,-145.8 1047.26,-142.3 1047.26,-149.3"/>
</g>
<!-- AppComponent  -->
<g id="node19" class="node">
<title>AppComponent </title>
<polygon fill="#80b1d3" stroke="black" points="1153.44,-214.8 1044.56,-214.8 1044.56,-178.8 1153.44,-178.8 1153.44,-214.8"/>
<text text-anchor="middle" x="1099" y="-192.6" font-family="Times,serif" font-size="14.00">AppComponent </text>
</g>
<!-- AppModule&#45;&gt;AppComponent  -->
<g id="edge20" class="edge">
<title>AppModule&#45;&gt;AppComponent </title>
<path fill="none" stroke="black" stroke-dasharray="1,5" d="M1099,-149.91C1099,-149.91 1099,-168.79 1099,-168.79"/>
<polygon fill="black" stroke="black" points="1095.5,-168.79 1099,-178.79 1102.5,-168.79 1095.5,-168.79"/>
</g>
<!-- AppRoutingModule -->
<g id="node18" class="node">
<title>AppRoutingModule</title>
<polygon fill="#8dd3c7" stroke="black" points="2480.28,-84.8 2477.28,-88.8 2456.28,-88.8 2453.28,-84.8 2351.72,-84.8 2351.72,-48.8 2480.28,-48.8 2480.28,-84.8"/>
<text text-anchor="middle" x="2416" y="-62.6" font-family="Times,serif" font-size="14.00">AppRoutingModule</text>
</g>
<!-- AppRoutingModule&#45;&gt;AppModule -->
<g id="edge19" class="edge">
<title>AppRoutingModule&#45;&gt;AppModule</title>
<path fill="none" stroke="black" d="M2416,-84.95C2416,-108.56 2416,-146.8 2416,-146.8 2416,-146.8 1150.96,-146.8 1150.96,-146.8"/>
<polygon fill="black" stroke="black" points="1150.96,-143.3 1140.96,-146.8 1150.96,-150.3 1150.96,-143.3"/>
</g>
</g>
</svg>
