<?xml version="1.0" encoding="UTF-8" standalone="no"?>
<!DOCTYPE svg PUBLIC "-//W3C//DTD SVG 1.1//EN"
 "http://www.w3.org/Graphics/SVG/1.1/DTD/svg11.dtd">
<!-- Generated by graphviz version 5.0.0 (20220707.1540)
 -->
<!-- Title: dependencies Pages: 1 -->
<svg width="2512pt" height="247pt"
 viewBox="0.00 0.00 2512.00 246.80" xmlns="http://www.w3.org/2000/svg" xmlns:xlink="http://www.w3.org/1999/xlink">
<g id="graph0" class="graph" transform="scale(1 1) rotate(0) translate(4 242.8)">
<title>dependencies</title>
<polygon fill="white" stroke="transparent" points="-4,4 -4,-242.8 2508,-242.8 2508,4 -4,4"/>
<text text-anchor="middle" x="1252" y="-8.2" font-family="sans-serif" font-size="14.00">dependencies</text>
<g id="clust1" class="cluster">
<title>cluster_AppModule</title>
<polygon fill="none" stroke="black" stroke-dasharray="1,5" points="8,-32.8 8,-230.8 2496,-230.8 2496,-32.8 8,-32.8"/>
</g>
<g id="clust2" class="cluster">
<title>cluster_AppModule_declarations</title>
<polygon fill="none" stroke="black" points="168,-40.8 168,-92.8 2488,-92.8 2488,-40.8 168,-40.8"/>
</g>
<g id="clust19" class="cluster">
<title>cluster_AppModule_imports</title>
<polygon fill="none" stroke="black" points="16,-40.8 16,-92.8 160,-92.8 160,-40.8 16,-40.8"/>
</g>
<g id="clust21" class="cluster">
<title>cluster_AppModule_bootstrap</title>
<polygon fill="none" stroke="black" points="1189,-170.8 1189,-222.8 1313,-222.8 1313,-170.8 1189,-170.8"/>
</g>
<!-- ActiveListComponent -->
<g id="node1" class="node">
<title>ActiveListComponent</title>
<polygon fill="#ffffb3" stroke="black" points="2480.43,-84.8 2339.57,-84.8 2339.57,-48.8 2480.43,-48.8 2480.43,-84.8"/>
<text text-anchor="middle" x="2410" y="-62.6" font-family="Times,serif" font-size="14.00">ActiveListComponent</text>
</g>
<!-- AppModule -->
<g id="node17" class="node">
<title>AppModule</title>
<polygon fill="#8dd3c7" stroke="black" points="1292.66,-149.8 1289.66,-153.8 1268.66,-153.8 1265.66,-149.8 1209.34,-149.8 1209.34,-113.8 1292.66,-113.8 1292.66,-149.8"/>
<text text-anchor="middle" x="1251" y="-127.6" font-family="Times,serif" font-size="14.00">AppModule</text>
</g>
<!-- ActiveListComponent&#45;&gt;AppModule -->
<g id="edge1" class="edge">
<title>ActiveListComponent&#45;&gt;AppModule</title>
<path fill="none" stroke="black" d="M2410,-85.12C2410,-108.46 2410,-145.8 2410,-145.8 2410,-145.8 1302.93,-145.8 1302.93,-145.8"/>
<polygon fill="black" stroke="black" points="1302.93,-142.3 1292.93,-145.8 1302.93,-149.3 1302.93,-142.3"/>
</g>
<!-- AdminUserComponent -->
<g id="node2" class="node">
<title>AdminUserComponent</title>
<polygon fill="#ffffb3" stroke="black" points="2321.16,-84.8 2174.84,-84.8 2174.84,-48.8 2321.16,-48.8 2321.16,-84.8"/>
<text text-anchor="middle" x="2248" y="-62.6" font-family="Times,serif" font-size="14.00">AdminUserComponent</text>
</g>
<!-- AdminUserComponent&#45;&gt;AppModule -->
<g id="edge2" class="edge">
<title>AdminUserComponent&#45;&gt;AppModule</title>
<path fill="none" stroke="black" d="M2248,-84.96C2248,-107.15 2248,-141.8 2248,-141.8 2248,-141.8 1302.89,-141.8 1302.89,-141.8"/>
<polygon fill="black" stroke="black" points="1302.89,-138.3 1292.89,-141.8 1302.89,-145.3 1302.89,-138.3"/>
</g>
<!-- AppComponent -->
<g id="node3" class="node">
<title>AppComponent</title>
<polygon fill="#ffffb3" stroke="black" points="2156.94,-84.8 2051.06,-84.8 2051.06,-48.8 2156.94,-48.8 2156.94,-84.8"/>
<text text-anchor="middle" x="2104" y="-62.6" font-family="Times,serif" font-size="14.00">AppComponent</text>
</g>
<!-- AppComponent&#45;&gt;AppModule -->
<g id="edge3" class="edge">
<title>AppComponent&#45;&gt;AppModule</title>
<path fill="none" stroke="black" d="M2104,-85.08C2104,-106.12 2104,-137.8 2104,-137.8 2104,-137.8 1302.72,-137.8 1302.72,-137.8"/>
<polygon fill="black" stroke="black" points="1302.72,-134.3 1292.72,-137.8 1302.72,-141.3 1302.72,-134.3"/>
</g>
<!-- ArchiveListComponent -->
<g id="node4" class="node">
<title>ArchiveListComponent</title>
<polygon fill="#ffffb3" stroke="black" points="2033.2,-84.8 1884.8,-84.8 1884.8,-48.8 2033.2,-48.8 2033.2,-84.8"/>
<text text-anchor="middle" x="1959" y="-62.6" font-family="Times,serif" font-size="14.00">ArchiveListComponent</text>
</g>
<!-- ArchiveListComponent&#45;&gt;AppModule -->
<g id="edge4" class="edge">
<title>ArchiveListComponent&#45;&gt;AppModule</title>
<path fill="none" stroke="black" d="M1959,-85.11C1959,-104.95 1959,-133.8 1959,-133.8 1959,-133.8 1302.91,-133.8 1302.91,-133.8"/>
<polygon fill="black" stroke="black" points="1302.91,-130.3 1292.91,-133.8 1302.91,-137.3 1302.91,-130.3"/>
</g>
<!-- ConnexionComponent -->
<g id="node5" class="node">
<title>ConnexionComponent</title>
<polygon fill="#ffffb3" stroke="black" points="1867.27,-84.8 1724.73,-84.8 1724.73,-48.8 1867.27,-48.8 1867.27,-84.8"/>
<text text-anchor="middle" x="1796" y="-62.6" font-family="Times,serif" font-size="14.00">ConnexionComponent</text>
</g>
<!-- ConnexionComponent&#45;&gt;AppModule -->
<g id="edge5" class="edge">
<title>ConnexionComponent&#45;&gt;AppModule</title>
<path fill="none" stroke="black" d="M1796,-85.02C1796,-103.63 1796,-129.8 1796,-129.8 1796,-129.8 1302.86,-129.8 1302.86,-129.8"/>
<polygon fill="black" stroke="black" points="1302.86,-126.3 1292.86,-129.8 1302.86,-133.3 1302.86,-126.3"/>
</g>
<!-- FilterActivePipe -->
<g id="node6" class="node">
<title>FilterActivePipe</title>
<polygon fill="#ffffb3" stroke="black" points="1706.04,-84.8 1597.96,-84.8 1597.96,-48.8 1706.04,-48.8 1706.04,-84.8"/>
<text text-anchor="middle" x="1652" y="-62.6" font-family="Times,serif" font-size="14.00">FilterActivePipe</text>
</g>
<!-- FilterActivePipe&#45;&gt;AppModule -->
<g id="edge6" class="edge">
<title>FilterActivePipe&#45;&gt;AppModule</title>
<path fill="none" stroke="black" d="M1652,-84.82C1652,-102.17 1652,-125.8 1652,-125.8 1652,-125.8 1302.78,-125.8 1302.78,-125.8"/>
<polygon fill="black" stroke="black" points="1302.78,-122.3 1292.78,-125.8 1302.78,-129.3 1302.78,-122.3"/>
</g>
<!-- FilterInactivePipe -->
<g id="node7" class="node">
<title>FilterInactivePipe</title>
<polygon fill="#ffffb3" stroke="black" points="1580.3,-84.8 1463.7,-84.8 1463.7,-48.8 1580.3,-48.8 1580.3,-84.8"/>
<text text-anchor="middle" x="1522" y="-62.6" font-family="Times,serif" font-size="14.00">FilterInactivePipe</text>
</g>
<!-- FilterInactivePipe&#45;&gt;AppModule -->
<g id="edge7" class="edge">
<title>FilterInactivePipe&#45;&gt;AppModule</title>
<path fill="none" stroke="black" d="M1522,-84.81C1522,-100.85 1522,-121.8 1522,-121.8 1522,-121.8 1302.75,-121.8 1302.75,-121.8"/>
<polygon fill="black" stroke="black" points="1302.75,-118.3 1292.75,-121.8 1302.75,-125.3 1302.75,-118.3"/>
</g>
<!-- HeaderComponent -->
<g id="node8" class="node">
<title>HeaderComponent</title>
<polygon fill="#ffffb3" stroke="black" points="1445.75,-84.8 1324.25,-84.8 1324.25,-48.8 1445.75,-48.8 1445.75,-84.8"/>
<text text-anchor="middle" x="1385" y="-62.6" font-family="Times,serif" font-size="14.00">HeaderComponent</text>
</g>
<!-- HeaderComponent&#45;&gt;AppModule -->
<g id="edge8" class="edge">
<title>HeaderComponent&#45;&gt;AppModule</title>
<path fill="none" stroke="black" d="M1385,-84.92C1385,-99.58 1385,-117.8 1385,-117.8 1385,-117.8 1302.66,-117.8 1302.66,-117.8"/>
<polygon fill="black" stroke="black" points="1302.66,-114.3 1292.66,-117.8 1302.66,-121.3 1302.66,-114.3"/>
</g>
<!-- InputComponent -->
<g id="node9" class="node">
<title>InputComponent</title>
<polygon fill="#ffffb3" stroke="black" points="1306.38,-84.8 1195.62,-84.8 1195.62,-48.8 1306.38,-48.8 1306.38,-84.8"/>
<text text-anchor="middle" x="1251" y="-62.6" font-family="Times,serif" font-size="14.00">InputComponent</text>
</g>
<!-- InputComponent&#45;&gt;AppModule -->
<g id="edge9" class="edge">
<title>InputComponent&#45;&gt;AppModule</title>
<path fill="none" stroke="black" d="M1237.06,-84.91C1237.06,-84.91 1237.06,-103.79 1237.06,-103.79"/>
<polygon fill="black" stroke="black" points="1233.56,-103.79 1237.06,-113.79 1240.56,-103.79 1233.56,-103.79"/>
</g>
<!-- InputComponent&#45;&gt;AppModule -->
<g id="edge10" class="edge">
<title>InputComponent&#45;&gt;AppModule</title>
<path fill="none" stroke="black" d="M1264.94,-84.91C1264.94,-84.91 1264.94,-103.79 1264.94,-103.79"/>
<polygon fill="black" stroke="black" points="1261.44,-103.79 1264.94,-113.79 1268.44,-103.79 1261.44,-103.79"/>
</g>
<!-- InscriptionComponent -->
<g id="node10" class="node">
<title>InscriptionComponent</title>
<polygon fill="#ffffb3" stroke="black" points="1177.99,-84.8 1036.01,-84.8 1036.01,-48.8 1177.99,-48.8 1177.99,-84.8"/>
<text text-anchor="middle" x="1107" y="-62.6" font-family="Times,serif" font-size="14.00">InscriptionComponent</text>
</g>
<!-- InscriptionComponent&#45;&gt;AppModule -->
<g id="edge11" class="edge">
<title>InscriptionComponent&#45;&gt;AppModule</title>
<path fill="none" stroke="black" d="M1107,-84.92C1107,-99.58 1107,-117.8 1107,-117.8 1107,-117.8 1198.96,-117.8 1198.96,-117.8"/>
<polygon fill="black" stroke="black" points="1198.96,-121.3 1208.96,-117.8 1198.96,-114.3 1198.96,-121.3"/>
</g>
<!-- ModificationComponent -->
<g id="node11" class="node">
<title>ModificationComponent</title>
<polygon fill="#ffffb3" stroke="black" points="1018.43,-84.8 863.57,-84.8 863.57,-48.8 1018.43,-48.8 1018.43,-84.8"/>
<text text-anchor="middle" x="941" y="-62.6" font-family="Times,serif" font-size="14.00">ModificationComponent</text>
</g>
<!-- ModificationComponent&#45;&gt;AppModule -->
<g id="edge12" class="edge">
<title>ModificationComponent&#45;&gt;AppModule</title>
<path fill="none" stroke="black" d="M941,-84.81C941,-100.85 941,-121.8 941,-121.8 941,-121.8 1199.19,-121.8 1199.19,-121.8"/>
<polygon fill="black" stroke="black" points="1199.19,-125.3 1209.19,-121.8 1199.19,-118.3 1199.19,-125.3"/>
</g>
<!-- PaginationComponent -->
<g id="node12" class="node">
<title>PaginationComponent</title>
<polygon fill="#ffffb3" stroke="black" points="845.71,-84.8 704.29,-84.8 704.29,-48.8 845.71,-48.8 845.71,-84.8"/>
<text text-anchor="middle" x="775" y="-62.6" font-family="Times,serif" font-size="14.00">PaginationComponent</text>
</g>
<!-- PaginationComponent&#45;&gt;AppModule -->
<g id="edge13" class="edge">
<title>PaginationComponent&#45;&gt;AppModule</title>
<path fill="none" stroke="black" d="M775,-84.83C775,-101.86 775,-124.8 775,-124.8 775,-124.8 1199.18,-124.8 1199.18,-124.8"/>
<polygon fill="black" stroke="black" points="1199.18,-128.3 1209.18,-124.8 1199.18,-121.3 1199.18,-128.3"/>
</g>
<!-- SearchInactifPipe -->
<g id="node13" class="node">
<title>SearchInactifPipe</title>
<polygon fill="#ffffb3" stroke="black" points="686.51,-84.8 571.49,-84.8 571.49,-48.8 686.51,-48.8 686.51,-84.8"/>
<text text-anchor="middle" x="629" y="-62.6" font-family="Times,serif" font-size="14.00">SearchInactifPipe</text>
</g>
<!-- SearchInactifPipe&#45;&gt;AppModule -->
<g id="edge14" class="edge">
<title>SearchInactifPipe&#45;&gt;AppModule</title>
<path fill="none" stroke="black" d="M629,-85.07C629,-103.36 629,-128.8 629,-128.8 629,-128.8 1199.22,-128.8 1199.22,-128.8"/>
<polygon fill="black" stroke="black" points="1199.22,-132.3 1209.22,-128.8 1199.22,-125.3 1199.22,-132.3"/>
</g>
<!-- SearchPipe -->
<g id="node14" class="node">
<title>SearchPipe</title>
<polygon fill="#ffffb3" stroke="black" points="553.48,-84.8 474.52,-84.8 474.52,-48.8 553.48,-48.8 553.48,-84.8"/>
<text text-anchor="middle" x="514" y="-62.6" font-family="Times,serif" font-size="14.00">SearchPipe</text>
</g>
<!-- SearchPipe&#45;&gt;AppModule -->
<g id="edge15" class="edge">
<title>SearchPipe&#45;&gt;AppModule</title>
<path fill="none" stroke="black" d="M514,-84.91C514,-104.14 514,-131.8 514,-131.8 514,-131.8 1199.26,-131.8 1199.26,-131.8"/>
<polygon fill="black" stroke="black" points="1199.26,-135.3 1209.26,-131.8 1199.26,-128.3 1199.26,-135.3"/>
</g>
<!-- SelectComponent -->
<g id="node15" class="node">
<title>SelectComponent</title>
<polygon fill="#ffffb3" stroke="black" points="456.54,-84.8 341.46,-84.8 341.46,-48.8 456.54,-48.8 456.54,-84.8"/>
<text text-anchor="middle" x="399" y="-62.6" font-family="Times,serif" font-size="14.00">SelectComponent</text>
</g>
<!-- SelectComponent&#45;&gt;AppModule -->
<g id="edge16" class="edge">
<title>SelectComponent&#45;&gt;AppModule</title>
<path fill="none" stroke="black" d="M418.26,-84.93C418.26,-105.37 418.26,-135.8 418.26,-135.8 418.26,-135.8 1199.13,-135.8 1199.13,-135.8"/>
<polygon fill="black" stroke="black" points="1199.13,-139.3 1209.13,-135.8 1199.13,-132.3 1199.13,-139.3"/>
</g>
<!-- SelectComponent&#45;&gt;AppModule -->
<g id="edge17" class="edge">
<title>SelectComponent&#45;&gt;AppModule</title>
<path fill="none" stroke="black" d="M379.74,-84.84C379.74,-106.46 379.74,-139.8 379.74,-139.8 379.74,-139.8 1199.27,-139.8 1199.27,-139.8"/>
<polygon fill="black" stroke="black" points="1199.27,-143.3 1209.27,-139.8 1199.27,-136.3 1199.27,-143.3"/>
</g>
<!-- SimpleUserComponent -->
<g id="node16" class="node">
<title>SimpleUserComponent</title>
<polygon fill="#ffffb3" stroke="black" points="323.94,-84.8 176.06,-84.8 176.06,-48.8 323.94,-48.8 323.94,-84.8"/>
<text text-anchor="middle" x="250" y="-62.6" font-family="Times,serif" font-size="14.00">SimpleUserComponent</text>
</g>
<!-- SimpleUserComponent&#45;&gt;AppModule -->
<g id="edge18" class="edge">
<title>SimpleUserComponent&#45;&gt;AppModule</title>
<path fill="none" stroke="black" d="M250,-84.81C250,-107.29 250,-142.8 250,-142.8 250,-142.8 1199.26,-142.8 1199.26,-142.8"/>
<polygon fill="black" stroke="black" points="1199.26,-146.3 1209.26,-142.8 1199.26,-139.3 1199.26,-146.3"/>
</g>
<!-- AppComponent  -->
<g id="node19" class="node">
<title>AppComponent </title>
<polygon fill="#80b1d3" stroke="black" points="1305.44,-214.8 1196.56,-214.8 1196.56,-178.8 1305.44,-178.8 1305.44,-214.8"/>
<text text-anchor="middle" x="1251" y="-192.6" font-family="Times,serif" font-size="14.00">AppComponent </text>
</g>
<!-- AppModule&#45;&gt;AppComponent  -->
<g id="edge20" class="edge">
<title>AppModule&#45;&gt;AppComponent </title>
<path fill="none" stroke="black" stroke-dasharray="1,5" d="M1251,-149.91C1251,-149.91 1251,-168.79 1251,-168.79"/>
<polygon fill="black" stroke="black" points="1247.5,-168.79 1251,-178.79 1254.5,-168.79 1247.5,-168.79"/>
</g>
<!-- AppRoutingModule -->
<g id="node18" class="node">
<title>AppRoutingModule</title>
<polygon fill="#8dd3c7" stroke="black" points="152.28,-84.8 149.28,-88.8 128.28,-88.8 125.28,-84.8 23.72,-84.8 23.72,-48.8 152.28,-48.8 152.28,-84.8"/>
<text text-anchor="middle" x="88" y="-62.6" font-family="Times,serif" font-size="14.00">AppRoutingModule</text>
</g>
<!-- AppRoutingModule&#45;&gt;AppModule -->
<g id="edge19" class="edge">
<title>AppRoutingModule&#45;&gt;AppModule</title>
<path fill="none" stroke="black" d="M88,-84.95C88,-108.56 88,-146.8 88,-146.8 88,-146.8 1199.27,-146.8 1199.27,-146.8"/>
<polygon fill="black" stroke="black" points="1199.27,-150.3 1209.27,-146.8 1199.27,-143.3 1199.27,-150.3"/>
</g>
</g>
</svg>
